<?xml version="1.0" encoding="utf-8"?>
<!-- Generator: Adobe Illustrator 25.2.1, SVG Export Plug-In . SVG Version: 6.00 Build 0)  -->
<svg version="1.1" id="Layer_1" xmlns="http://www.w3.org/2000/svg" xmlns:xlink="http://www.w3.org/1999/xlink" x="0px" y="0px"
	 viewBox="0 0 1000 1000" style="enable-background:new 0 0 1000 1000;" xml:space="preserve">
<style type="text/css">
	.st0{fill:#FFFBCA;}
</style>
<path class="st0" d="M668,667.3c-45.8,55.6-115.3,91.1-193,91.1c-138.1,0-250-111.9-250-250c0-122.9,88.6-225,205.4-246
	c-35.6,43.2-57,98.6-57,158.9c0,138.1,111.9,250,250,250C638.7,671.3,653.6,669.9,668,667.3z"/>
<g>
	<path class="st0" d="M547.6,339.9h-9.3c0,9.1-7.4,16.5-16.5,16.5v9.3c9.1,0,16.5,7.4,16.5,16.5h9.3c0-9.1,7.4-16.5,16.5-16.5v-9.3
		C555,356.4,547.6,349.1,547.6,339.9z M543,367.4c-1.7-2.5-3.9-4.6-6.4-6.4c2.5-1.7,4.6-3.9,6.4-6.4c1.7,2.5,3.9,4.6,6.4,6.4
		C546.9,362.8,544.7,364.9,543,367.4z"/>
	<path class="st0" d="M521.8,400.9h-9.3c0,20.7-16.8,37.6-37.6,37.6v9.3c20.7,0,37.6,16.8,37.6,37.6h9.3c0-20.7,16.8-37.6,37.6-37.6
		v-9.3C538.7,438.4,521.8,421.7,521.8,400.9z M517.2,465.1c-4.6-9.5-12.4-17.3-21.9-21.9c9.5-4.6,17.3-12.4,21.9-21.9
		c4.6,9.5,12.3,17.3,21.9,21.9C529.5,447.8,521.8,455.4,517.2,465.1z"/>
	<path class="st0" d="M756.2,339.9h-9.3c0,10.4-8.4,18.8-18.8,18.8v9.3c10.4,0,18.8,8.4,18.8,18.8h9.3c0-10.4,8.4-18.8,18.8-18.8
		v-9.3C764.6,358.8,756.2,350.3,756.2,339.9z M751.6,371.4c-2.1-3.2-4.8-5.9-8-8c3.2-2.1,5.9-4.8,8-8c2.1,3.2,4.8,5.9,8,8
		C756.4,365.6,753.6,368.2,751.6,371.4z"/>
	<path class="st0" d="M643.7,363.4h-9.3c0,10.4-8.4,18.8-18.8,18.8v9.3c10.4,0,18.8,8.4,18.8,18.8h9.3c0-10.4,8.4-18.8,18.8-18.8
		v-9.3C652.1,382.2,643.7,373.8,643.7,363.4z M639,394.8c-2.1-3.2-4.8-5.9-8-8c3.2-2.1,5.9-4.8,8-8c2.1,3.2,4.8,5.9,8,8
		C643.9,388.9,641.1,391.8,639,394.8z"/>
	<path class="st0" d="M503.1,246.2h-9.3c0,10.4-8.4,18.8-18.8,18.8v9.3c10.4,0,18.8,8.4,18.8,18.8h9.3c0-10.4,8.4-18.8,18.8-18.8
		v-9.3C511.5,265.1,503.1,256.6,503.1,246.2z M498.4,277.7c-2.1-3.2-4.8-5.9-8-8c3.2-2.1,5.9-4.8,8-8c2.1,3.2,4.8,5.9,8,8
		C503.3,271.8,500.5,274.4,498.4,277.7z"/>
	<path class="st0" d="M690.6,241.6h-9.3c0,10.4-8.4,18.8-18.8,18.8v9.3c10.4,0,18.8,8.4,18.8,18.8h9.3c0-10.4,8.4-18.8,18.8-18.8
		v-9.3C699,260.3,690.6,251.9,690.6,241.6z M685.9,273.1c-2.1-3.2-4.8-5.9-8-8c3.2-2.1,5.9-4.8,8-8c2.1,3.2,4.8,5.9,8,8
		C690.8,267.1,688,269.8,685.9,273.1z"/>
	<path class="st0" d="M582.8,494.7h-9.3c0,10.4-8.4,18.8-18.8,18.8v9.3c10.4,0,18.8,8.4,18.8,18.8h9.3c0-10.4,8.4-18.8,18.8-18.8
		v-9.3C591.2,513.4,582.8,505.1,582.8,494.7z M578.1,526.2c-2.1-3.2-4.8-5.9-8-8c3.2-2.1,5.9-4.8,8-8c2.1,3.2,4.8,5.9,8,8
		C583,520.2,580.2,522.9,578.1,526.2z"/>
	<path class="st0" d="M685.9,410.3h-9.3c0,33.6-27.4,61-61,61v9.3c33.6,0,61,27.4,61,61h9.3c0-33.6,27.4-61,61-61v-9.3
		C713.2,471.3,685.9,443.9,685.9,410.3z M681.2,516.4c-7.1-18.6-22-33.4-40.5-40.5c18.6-7.1,33.4-22,40.5-40.5
		c7.1,18.6,22,33.4,40.5,40.5C703.2,483.1,688.4,497.8,681.2,516.4z"/>
	<path class="st0" d="M582.8,246.2h-9.3c0,25.9-21.1,46.9-46.9,46.9v9.2c25.9,0,46.9,21.1,46.9,46.9h9.3c0-25.9,21-46.9,46.9-46.9
		v-9.2C603.8,293.2,582.8,272.2,582.8,246.2z M578.1,327.1c-5.7-13.1-16.2-23.6-29.2-29.2c13-5.7,23.5-16.2,29.2-29.2
		c5.7,13,16.2,23.5,29.2,29.2C594.3,303.4,583.8,313.9,578.1,327.1z"/>
</g>
</svg>
