<?xml version="1.0" encoding="utf-8"?>
<!-- Generator: Adobe Illustrator 25.2.1, SVG Export Plug-In . SVG Version: 6.00 Build 0)  -->
<svg version="1.1" id="Layer_1" xmlns="http://www.w3.org/2000/svg" xmlns:xlink="http://www.w3.org/1999/xlink" x="0px" y="0px"
	 viewBox="0 0 1000 1000" style="enable-background:new 0 0 1000 1000;" xml:space="preserve">
<style type="text/css">
	.st0{fill:#F2A71E;stroke:#9E00E0;stroke-miterlimit:10;}
	.st1{fill:#F2A71E;}
</style>
<circle class="st0" cx="500" cy="500" r="250"/>
<g>
	<g>
		<g>
			<path class="st1" d="M802.1,837.5l-87-87c-9.2-9.2-9.2-24,0-33.2l2.2-2.2c9.2-9.2,24-9.2,33.2,0l87,87c9.2,9.2,9.2,24,0,33.2
				l-2.2,2.2C826.1,846.6,811.3,846.6,802.1,837.5z"/>
		</g>
	</g>
	<g>
		<g>
			<path class="st1" d="M475,952.3V829.2c0-13,10.5-23.4,23.4-23.4h3.1c13,0,23.4,10.5,23.4,23.4v123.1c0,13-10.5,23.4-23.4,23.4
				h-3.1C485.5,975.7,475,965.2,475,952.3z"/>
		</g>
	</g>
	<g>
		<g>
			<path class="st1" d="M162.5,802.1l87-87c9.2-9.2,24-9.2,33.2,0l2.2,2.2c9.2,9.2,9.2,24,0,33.2l-87,87c-9.2,9.2-24,9.2-33.2,0
				l-2.2-2.2C153.4,826.1,153.4,811.3,162.5,802.1z"/>
		</g>
	</g>
	<g>
		<g>
			<path class="st1" d="M47.7,475h123.1c13,0,23.4,10.5,23.4,23.4v3.1c0,13-10.5,23.4-23.4,23.4H47.7c-13,0-23.4-10.5-23.4-23.4
				v-3.1C24.3,485.5,34.8,475,47.7,475z"/>
		</g>
	</g>
	<g>
		<g>
			<path class="st1" d="M197.9,162.5l87,87c9.2,9.2,9.2,24,0,33.2l-2.2,2.2c-9.2,9.2-24,9.2-33.2,0l-87-87c-9.2-9.2-9.2-24,0-33.2
				l2.2-2.2C173.9,153.4,188.7,153.4,197.9,162.5z"/>
		</g>
	</g>
	<g>
		<g>
			<path class="st1" d="M525,47.7v123.1c0,13-10.5,23.4-23.4,23.4h-3.1c-13,0-23.4-10.5-23.4-23.4V47.7c0-13,10.5-23.4,23.4-23.4
				h3.1C514.5,24.3,525,34.8,525,47.7z"/>
		</g>
	</g>
	<g>
		<g>
			<path class="st1" d="M837.5,197.9l-87,87c-9.2,9.2-24,9.2-33.2,0l-2.2-2.2c-9.2-9.2-9.2-24,0-33.2l87-87c9.2-9.2,24-9.2,33.2,0
				l2.2,2.2C846.6,173.9,846.6,188.7,837.5,197.9z"/>
		</g>
	</g>
	<g>
		<g>
			<path class="st1" d="M952.3,525H829.2c-13,0-23.4-10.5-23.4-23.4v-3.1c0-13,10.5-23.4,23.4-23.4h123.1c13,0,23.4,10.5,23.4,23.4
				v3.1C975.7,514.5,965.2,525,952.3,525z"/>
		</g>
	</g>
</g>
</svg>
